# xmcd CD database file
#
# Track frame offsets:
#	150
#	16905
#	31455
#	48331
#	61370
#	73435
#	87823
#	101425
#	117150
#	135813
#	151702
#	167318
#
# Disc length: 2439 seconds
#
# Revision: 0
# Processed by: cddbd v1.5.2PL0 Copyright (c) Steve Scherf et al.
# Submitted via: CDex 1.51
#
DISCID=8a09850c
DTITLE=Hank Williams Jr. - Old School . New Rules
DYEAR=2012
DGENRE=Country
TTITLE0=Takin' Back The Country
TTITLE1=I'm Gonna Get Drunk And Play Hank Williams
TTITLE2=Three Day Trip
TTITLE3=Old School
TTITLE4=We Don't Apologize For America
TTITLE5=You Win Again
TTITLE6=The Cow Turd Blues
TTITLE7=Who's Taking Care Of Number One
TTITLE8=That Ain't Good
TTITLE9=Keep The Change
TTITLE10=Stock Market Blues
TTITLE11=I Think I'll Just Stay Here And Drink
EXTD=YEAR: 2012
EXTT0=
EXTT1=
EXTT2=
EXTT3=
EXTT4=
EXTT5=
EXTT6=
EXTT7=
EXTT8=
EXTT9=
EXTT10=
EXTT11=
PLAYORDER=
